<svg width="24" height="24" viewBox="0 0 24 24" fill="none" xmlns="http://www.w3.org/2000/svg">
<path d="M24 12C24 9.62663 23.2962 7.30655 21.9776 5.33316C20.6591 3.35977 18.7849 1.8217 16.5922 0.913451C14.3995 0.00519943 11.9867 -0.232441 9.65892 0.230582C7.33115 0.693605 5.19295 1.83649 3.51472 3.51472C1.83649 5.19295 0.693605 7.33115 0.230582 9.65892C-0.232441 11.9867 0.00519943 14.3995 0.913451 16.5922C1.8217 18.7849 3.35977 20.6591 5.33316 21.9776C7.30655 23.2962 9.62663 24 12 24C15.1826 24 18.2348 22.7357 20.4853 20.4853C22.7357 18.2348 24 15.1826 24 12ZM6.5 15.5C6.23479 15.5 5.98043 15.3946 5.7929 15.2071C5.60536 15.0196 5.5 14.7652 5.5 14.5V9.207C5.50003 9.10807 5.5294 9.01136 5.5844 8.92913C5.63941 8.84689 5.71757 8.78282 5.809 8.74503C5.90044 8.70724 6.00103 8.69742 6.09804 8.71682C6.19506 8.73621 6.28414 8.78396 6.354 8.854L8.618 11.118C8.66671 11.1667 8.72494 11.2048 8.78906 11.2299C8.85318 11.2551 8.9218 11.2667 8.99062 11.2641C9.05944 11.2614 9.12697 11.2446 9.18899 11.2147C9.251 11.1847 9.30616 11.1423 9.351 11.09L11.62 8.443C11.6669 8.38811 11.7252 8.34405 11.7908 8.31383C11.8564 8.28361 11.9278 8.26797 12 8.26797C12.0722 8.26797 12.1436 8.28361 12.2092 8.31383C12.2748 8.34405 12.3331 8.38811 12.38 8.443L14.671 11.116C14.714 11.1662 14.7665 11.2074 14.8256 11.2372C14.8846 11.2669 14.9489 11.2847 15.0149 11.2894C15.0808 11.2942 15.147 11.2858 15.2097 11.2648C15.2724 11.2438 15.3303 11.2105 15.38 11.167L18.171 8.726C18.2432 8.66296 18.3319 8.62197 18.4267 8.60791C18.5215 8.59386 18.6183 8.60734 18.7056 8.64674C18.793 8.68615 18.8671 8.74982 18.9193 8.83017C18.9715 8.91053 18.9995 9.00419 19 9.10001V14.5C19 14.7652 18.8946 15.0196 18.7071 15.2071C18.5196 15.3946 18.2652 15.5 18 15.5H6.5Z" fill="#4D3C6A"/>
</svg>
