<svg width="32" height="32" viewBox="0 0 32 32" fill="none" xmlns="http://www.w3.org/2000/svg">
<g clip-path="url(#clip0_62_12916)">
<path d="M11.1325 10.7008C10.2107 10.5854 9.96094 10.4787 9.96094 9.94781C9.96094 9.4304 10.6188 9.19781 11.0859 9.19781C11.5358 9.14975 11.9791 9.33527 12.2605 9.68982C12.3642 9.86522 12.589 9.92582 12.7668 9.82629C12.9445 9.72655 13.0102 9.50309 12.9144 9.32296C12.583 8.83568 12.0485 8.52468 11.4609 8.47739V8.07281C11.4609 7.86574 11.2931 7.69792 11.0859 7.69792C10.879 7.69792 10.711 7.86574 10.711 8.07281V8.47827C9.92993 8.60155 9.21094 9.1073 9.21094 9.94781C9.21094 11.2163 10.3116 11.3541 11.0395 11.4447C11.9613 11.5602 12.211 11.6668 12.211 12.1978C12.211 12.6745 11.8007 12.9478 11.0859 12.9478C10.6567 12.9889 10.2254 12.8962 9.85108 12.6827C9.70394 12.5406 9.47014 12.5427 9.32553 12.6871C9.18081 12.8319 9.17883 13.0656 9.3208 13.2129C9.39294 13.2849 9.77091 13.6104 10.711 13.682V14.0728C10.711 14.2799 10.879 14.4477 11.0859 14.4477C11.2931 14.4477 11.4609 14.2799 11.4609 14.0728V13.6695C12.5545 13.5346 12.961 12.8221 12.961 12.1978C12.961 10.9292 11.8603 10.7916 11.1325 10.7008Z" fill="#4D3C6A"/>
<path d="M11.0858 6.19792C8.39363 6.19792 6.21094 8.3804 6.21094 11.0726C6.21094 13.765 8.39363 15.9475 11.0858 15.9475C13.7781 15.9475 15.9607 13.765 15.9607 11.0726C15.9577 8.38172 13.7769 6.20089 11.0858 6.19792ZM11.0858 15.1975C8.80778 15.1975 6.96083 13.3509 6.96083 11.0726C6.96083 8.79455 8.80778 6.94792 11.0858 6.94792C13.364 6.94792 15.2108 8.79455 15.2108 11.0726C15.2081 13.3496 13.3629 15.1949 11.0858 15.1975Z" fill="#4D3C6A"/>
<path d="M21.9608 16.6977C20.5676 16.6938 19.2307 17.2473 18.2482 18.2352C17.9452 18.5406 17.6808 18.8818 17.4608 19.2514V11.0728C17.4608 7.5521 14.6065 4.69792 11.0858 4.69792C7.56511 4.69792 4.71094 7.5521 4.71094 11.0728V26.0726C4.71094 26.6938 5.2146 27.1976 5.83594 27.1976H16.3358C16.957 27.1976 17.4608 26.6938 17.4608 26.0726V24.6435C17.6808 25.0129 17.9452 25.3542 18.2482 25.6597C19.9283 27.34 22.5275 27.6822 24.5854 26.4942C26.6431 25.3064 27.6466 22.8842 27.0317 20.589C26.4168 18.2938 24.3368 16.6977 21.9608 16.6977ZM16.7107 26.0726C16.7107 26.2797 16.5429 26.4475 16.3358 26.4475H5.83594C5.62886 26.4475 5.46094 26.2797 5.46094 26.0726V23.4477H8.49085C8.67626 24.7383 9.7819 25.6966 11.0858 25.6966C12.3897 25.6966 13.4954 24.7383 13.6808 23.4477H16.7107V26.0726ZM12.9233 23.4477C12.7459 24.3215 11.9776 24.9494 11.0858 24.9494C10.1943 24.9494 9.42593 24.3215 9.24843 23.4477H12.9233ZM9.24843 22.6977C9.42593 21.8238 10.1943 21.1958 11.0858 21.1958C11.9776 21.1958 12.7459 21.8238 12.9233 22.6977H9.24843ZM16.7107 22.6977H13.6808C13.4954 21.407 12.3897 20.4488 11.0858 20.4488C9.7819 20.4488 8.67626 21.407 8.49085 22.6977H5.46094V14.0729C5.46501 14.0808 5.46984 14.0879 5.47413 14.0957C5.48612 14.1182 5.49998 14.1397 5.51163 14.1616C5.58916 14.3015 5.67241 14.4374 5.76017 14.5705C5.78678 14.6111 5.81383 14.6514 5.84122 14.6912C5.9436 14.8413 6.05005 14.984 6.16409 15.1224L6.1686 15.1284C6.2844 15.2686 6.40778 15.4018 6.53535 15.5316C6.56867 15.5662 6.60309 15.5994 6.63773 15.6332C6.75001 15.7427 6.86526 15.848 6.98535 15.9493C7.00646 15.9674 7.02648 15.9868 7.04792 16.004C7.18748 16.1165 7.33264 16.2257 7.48132 16.328C7.51893 16.3539 7.55643 16.3782 7.59591 16.403C7.72083 16.4848 7.84829 16.5622 7.97805 16.6356C8.0128 16.6549 8.04701 16.6761 8.08253 16.6952C8.24231 16.7806 8.40573 16.8595 8.5731 16.9314C8.61061 16.9472 8.64799 16.9611 8.6856 16.976C8.82505 17.033 8.96691 17.0849 9.11119 17.1321C9.15573 17.1466 9.20038 17.1621 9.2459 17.176C9.42285 17.2291 9.6021 17.2768 9.78465 17.3146C9.8117 17.3203 9.83942 17.3242 9.86669 17.3293C10.0272 17.3605 10.1896 17.3849 10.3543 17.4043C10.4049 17.41 10.4555 17.4156 10.5066 17.4204C10.6982 17.4377 10.8908 17.4496 11.087 17.4496C11.283 17.4496 11.4758 17.4377 11.6673 17.4204C11.7184 17.4156 11.7691 17.41 11.8197 17.4043C11.984 17.3852 12.1464 17.3608 12.3073 17.3293C12.3346 17.3242 12.3623 17.3203 12.3895 17.3146C12.5719 17.2771 12.7517 17.2291 12.9283 17.176C12.9736 17.1621 13.0181 17.1466 13.0628 17.1321C13.207 17.0853 13.349 17.0333 13.4884 16.976C13.526 16.9611 13.5634 16.9472 13.601 16.9314C13.7687 16.8595 13.9321 16.7806 14.0914 16.6952C14.1271 16.6761 14.1612 16.6549 14.1962 16.6356C14.3267 16.5627 14.4539 16.485 14.5783 16.403C14.6155 16.3779 14.655 16.3535 14.6907 16.328C14.8407 16.2257 14.9847 16.1179 15.1242 16.004C15.1455 15.986 15.1658 15.9666 15.1867 15.9493C15.3067 15.848 15.4223 15.7427 15.5344 15.6332C15.5689 15.5994 15.6034 15.5662 15.6368 15.5316C15.7642 15.4018 15.8877 15.2691 16.0036 15.1284L16.008 15.1224C16.1206 14.984 16.2285 14.8393 16.3309 14.6912C16.3583 14.6514 16.3852 14.6111 16.4118 14.5705C16.4996 14.4374 16.5828 14.3015 16.6605 14.1616C16.6728 14.1397 16.6866 14.1182 16.6981 14.0957C16.7021 14.0879 16.707 14.0808 16.711 14.0729L16.7107 22.6977ZM11.0858 16.6977C7.97937 16.6977 5.46094 14.1795 5.46094 11.0728C5.46094 7.96625 7.97937 5.44792 11.0858 5.44792C14.1924 5.44792 16.7107 7.96625 16.7107 11.0728C16.7072 14.1779 14.191 16.6942 11.0858 16.6977ZM21.5537 17.4677C21.6884 17.4556 21.8237 17.4479 21.9608 17.4479C23.1548 17.4444 24.3006 17.919 25.1424 18.7658C25.2174 18.8408 25.2853 18.9201 25.3545 18.9992C24.1392 18.8734 22.9161 19.1433 21.8668 19.7686C21.5842 19.0365 21.4769 18.2486 21.5537 17.4677ZM18.7788 18.7658C19.3372 18.2066 20.034 17.8053 20.7981 17.6033C20.7373 18.4937 20.887 19.3859 21.235 20.2077C21.0741 20.3354 20.9204 20.4716 20.7746 20.6162C20.5832 20.8077 20.4056 21.0129 20.2436 21.2299C19.4158 20.8753 18.5152 20.7226 17.6168 20.7853C17.8187 20.0211 18.2196 19.3242 18.7788 18.7658ZM19.1936 25.492C18.0948 24.6455 17.454 23.3346 17.4608 21.9478C17.4608 21.8108 17.4686 21.6754 17.4807 21.5408C18.2781 21.4621 19.083 21.5756 19.8276 21.8719C19.2163 22.9733 18.9929 24.2484 19.1936 25.492ZM22.3676 26.4295C22.233 26.4415 22.0975 26.4494 21.9608 26.4494C21.314 26.4487 20.6753 26.3079 20.0879 26.0368C19.6949 24.7606 19.8419 23.3788 20.495 22.2139C20.7372 22.3654 20.9618 22.5426 21.1652 22.743C22.0926 23.7322 22.5329 25.082 22.3676 26.4279V26.4295ZM25.1424 25.1315C24.5841 25.6907 23.8873 26.0917 23.1231 26.2939C23.2521 24.7929 22.7326 23.3081 21.6955 22.215C21.4577 21.9807 21.1954 21.7724 20.9132 21.5941C21.0348 21.438 21.1656 21.2894 21.3047 21.1489C21.3973 21.0562 21.4941 20.9693 21.5932 20.8865C21.774 21.1754 21.9862 21.4435 22.2258 21.6859C23.222 22.6417 24.5577 23.162 25.9382 23.132C26.0592 23.132 26.1823 23.1214 26.3045 23.1143C26.102 23.8768 25.7009 24.5721 25.1424 25.1296V25.1315ZM26.4605 21.9478C26.4605 22.0845 26.4527 22.22 26.4406 22.3545C25.0951 22.5199 23.7452 22.0795 22.756 21.1524C22.544 20.9384 22.3577 20.7008 22.2001 20.444C23.3218 19.7554 24.6728 19.5458 25.9502 19.862C26.2871 20.5054 26.4621 21.2214 26.4605 21.9478Z" fill="#4D3C6A"/>
<path d="M27.1934 5.96408C27.154 5.83861 27.0516 5.74282 26.924 5.71181L26.099 5.511L25.6425 4.85833C25.5688 4.76375 25.4555 4.70833 25.3354 4.70833C25.2155 4.70833 25.1022 4.76375 25.0284 4.85833L24.5709 5.511L23.7459 5.71181C23.618 5.74271 23.5159 5.83839 23.4764 5.96397C23.4371 6.08945 23.4663 6.22636 23.5535 6.3249L24.0786 6.91775L24.0343 7.676C24.027 7.80158 24.083 7.92244 24.1838 7.99766C24.2844 8.07321 24.4161 8.09311 24.5345 8.05099L25.3354 7.76595L26.1364 8.05121C26.255 8.09355 26.3868 8.07365 26.4873 7.9981C26.5879 7.92266 26.6441 7.8018 26.6368 7.67643L26.5913 6.91808L27.1165 6.32523C27.2037 6.2268 27.2328 6.08956 27.1934 5.96408ZM25.9265 6.53604C25.8609 6.61049 25.8276 6.70803 25.8332 6.80712L25.8543 7.15429L25.4616 7.01452C25.3801 6.98505 25.291 6.98505 25.2095 7.01452L24.8169 7.15429L24.8378 6.80712C24.8436 6.70803 24.81 6.61049 24.7447 6.53604L24.5288 6.293L24.8855 6.20591C24.9743 6.18435 25.052 6.13091 25.1041 6.05602L25.3354 5.72666L25.5668 6.05745C25.619 6.13245 25.6968 6.18578 25.7857 6.20756L26.1422 6.29454L25.9265 6.53604Z" fill="#4D3C6A"/>
<path d="M23.0687 11.9223C23.0293 11.7968 22.9273 11.7011 22.7993 11.6699L21.9744 11.4697L21.5169 10.8169C21.443 10.7221 21.3297 10.6667 21.2098 10.6667C21.0898 10.6667 20.9764 10.7221 20.9028 10.8169L20.4452 11.4697L19.6202 11.6699C19.4924 11.7008 19.3901 11.7966 19.3508 11.9221C19.3112 12.0477 19.3407 12.1846 19.4279 12.283L19.9527 12.8762L19.9074 13.6344C19.9002 13.7601 19.9562 13.881 20.0569 13.9562C20.1574 14.0317 20.2892 14.0517 20.4077 14.0096L21.2108 13.7246L22.012 14.0098C22.1303 14.0521 22.262 14.0322 22.3627 13.9567C22.4632 13.8812 22.5194 13.7604 22.5121 13.6349L22.4667 12.8762L22.9918 12.283C23.0787 12.1846 23.1079 12.0477 23.0687 11.9223ZM21.8018 12.4949C21.7361 12.5694 21.7024 12.6668 21.7085 12.766L21.7296 13.1133L21.3369 12.9734C21.2554 12.9438 21.1663 12.9438 21.0848 12.9734L20.6922 13.1133L20.7133 12.766C20.7194 12.6668 20.6857 12.5694 20.62 12.4949L20.4044 12.2519L20.7609 12.1638C20.8496 12.142 20.9274 12.0887 20.9797 12.0138L21.2108 11.6852L21.4422 12.016C21.4943 12.091 21.5721 12.1443 21.6609 12.166L22.0175 12.2531L21.8018 12.4949Z" fill="#4D3C6A"/>
</g>
<defs>
<clipPath id="clip0_62_12916">
<rect width="24" height="24" fill="white" transform="translate(4 4)"/>
</clipPath>
</defs>
</svg>
