<svg width="32" height="32" viewBox="0 0 32 32" fill="none" xmlns="http://www.w3.org/2000/svg">
<g clip-path="url(#clip0_63_723)">
<path d="M25.3076 11.8333H6.55773C5.52257 11.8345 4.68394 12.6732 4.68262 13.7084V15.2083C4.68394 16.2433 5.52257 17.082 6.55773 17.0834H10.6827C10.8898 17.0834 11.0576 16.9154 11.0576 16.7083C11.0576 16.5013 10.8898 16.3334 10.6827 16.3334H6.55773C5.93639 16.3334 5.43262 15.8296 5.43262 15.2083V13.7084C5.43262 13.087 5.93639 12.5832 6.55773 12.5832H25.3076C25.929 12.5832 26.4327 13.087 26.4327 13.7084V15.2083C26.4327 15.8296 25.929 16.3334 25.3076 16.3334H21.1826C20.9755 16.3334 20.8077 16.5013 20.8077 16.7083C20.8077 16.9154 20.9755 17.0834 21.1826 17.0834H25.3076C26.3428 17.082 27.1814 16.2433 27.1826 15.2083V13.7084C27.1814 12.6732 26.3428 11.8345 25.3076 11.8333Z" fill="#4D3C6A"/>
<path d="M24.9326 15.5834C25.3469 15.5834 25.6827 15.2476 25.6827 14.8333V14.0834C25.6827 13.6691 25.3469 13.3333 24.9326 13.3333H6.93262C6.51847 13.3333 6.18262 13.6691 6.18262 14.0834V14.8333C6.18262 15.2476 6.51847 15.5834 6.93262 15.5834H11.0576C11.2648 15.5834 11.4326 15.4155 11.4326 15.2084C11.4326 15.0011 11.2648 14.8333 11.0576 14.8333H6.93262V14.0834H24.9326V14.8333H20.8077C20.6004 14.8333 20.4326 15.0011 20.4326 15.2084C20.4326 15.4155 20.6004 15.5834 20.8077 15.5834H24.9326Z" fill="#4D3C6A"/>
<path d="M20.0577 17.0834V16.3334C20.0577 15.9191 19.7219 15.5833 19.3076 15.5833H12.5576C12.1435 15.5833 11.8076 15.9191 11.8076 16.3334V17.0834C11.8076 17.4976 12.1435 17.8333 12.5576 17.8333H19.3076C19.7219 17.8333 20.0577 17.4976 20.0577 17.0834ZM13.3076 17.0834H12.5576V16.3334H13.3076V17.0834ZM14.8076 17.0834H14.0576V16.3334H14.8076V17.0834ZM16.3077 17.0834H15.5576V16.3334H16.3077V17.0834ZM17.8077 17.0834H17.0576V16.3334H17.8077V17.0834ZM18.5577 16.3334H19.3076V17.0834H18.5577V16.3334Z" fill="#4D3C6A"/>
<path d="M15.1395 26.684C15.2362 26.9984 15.5262 27.2132 15.855 27.2135C15.9301 27.2135 16.0051 27.2022 16.0769 27.1798L17.1501 26.8495H17.1521L20.02 25.9666L21.4525 25.5257L22.5273 25.1951C22.7175 25.1365 22.8765 25.0049 22.9694 24.8291C23.0626 24.6531 23.0819 24.4477 23.0234 24.2574L22.8033 23.5386C22.6798 23.1441 22.2613 22.9227 21.8659 23.0433L19.357 23.8153L16.4914 24.6974L15.4173 25.0283C15.2273 25.0867 15.0681 25.2182 14.9751 25.3943C14.882 25.57 14.8626 25.7754 14.9211 25.9657L15.1395 26.684ZM22.0871 23.759L22.3075 24.4761L21.5905 24.697L21.3701 23.9815L22.0871 23.759ZM20.6534 24.2004L20.874 24.9171L20.1569 25.1382L19.9365 24.4214L20.6534 24.2004ZM19.22 24.642L19.4403 25.3585L18.7233 25.5794L18.5029 24.8628L19.22 24.642ZM17.7862 25.0833L18.0068 25.7997L17.2897 26.0207L17.0691 25.304L17.7862 25.0833ZM16.3526 25.5262L16.5731 26.2426L15.8576 26.4636L15.6371 25.7468L16.3526 25.5262Z" fill="#4D3C6A"/>
<path d="M25.0896 20.5128L21.1104 19.4272L18.5777 18.7351C18.1783 18.6259 17.7661 18.8609 17.6565 19.26L17.4593 19.9829C17.3502 20.3823 17.5851 20.7944 17.9844 20.904L21.9639 21.9914L24.4979 22.6838C24.5617 22.7013 24.6277 22.7101 24.6939 22.7101C25.033 22.7103 25.3305 22.484 25.4203 22.1567L25.6175 21.433C25.6695 21.2412 25.6431 21.0361 25.5443 20.8637C25.4453 20.6909 25.2815 20.5648 25.0896 20.5128ZM18.9065 20.3812L18.1827 20.1841L18.38 19.4601L19.1037 19.6575L18.9065 20.3812ZM20.3535 20.776L19.6298 20.5785L19.8275 19.8551L20.551 20.0523L20.3535 20.776ZM21.8009 21.1725L21.0769 20.9752L21.2748 20.2515L21.998 20.4488L21.8009 21.1725ZM23.248 21.5673L22.5242 21.37L22.7218 20.6463L23.4453 20.8435L23.248 21.5673ZM24.6951 21.9601L23.972 21.7628L24.1696 21.0389L24.8933 21.236L24.6951 21.9601Z" fill="#4D3C6A"/>
<path d="M5.43262 22.7085C5.43262 25.1937 7.44739 27.2083 9.93262 27.2083C12.4178 27.2083 14.4327 25.1937 14.4327 22.7085C14.4327 20.2231 12.4178 18.2083 9.93262 18.2083C7.44849 18.2111 5.43537 20.2242 5.43262 22.7085ZM13.6826 22.7085C13.6826 24.7794 12.0037 26.4584 9.93262 26.4584C7.86165 26.4584 6.18262 24.7794 6.18262 22.7085C6.18262 20.6375 7.86165 18.9583 9.93262 18.9583C12.0028 18.9607 13.6804 20.6382 13.6826 22.7085Z" fill="#4D3C6A"/>
<path d="M9.55774 19.7082V20.117C8.77893 20.2527 8.05763 20.7953 8.05763 21.5543C8.05763 22.8166 9.15382 22.9748 9.87907 23.0794C10.7345 23.2028 11.0576 23.3023 11.0576 23.862C11.0576 24.0803 10.6077 24.4099 9.93263 24.4099C9.47383 24.3804 9.03516 24.2102 8.67632 23.9224C8.51896 23.7878 8.28219 23.8064 8.14759 23.9636C8.01309 24.121 8.03146 24.3578 8.18882 24.4925C8.58681 24.8121 9.0566 25.0294 9.55774 25.1263V25.7082C9.55774 25.9152 9.72555 26.0831 9.93263 26.0831C10.1398 26.0831 10.3076 25.9152 10.3076 25.7082V25.1345C11.1735 25.0175 11.8076 24.5007 11.8076 23.862C11.8076 22.5998 10.7116 22.4414 9.9863 22.337C9.13094 22.2135 8.80774 22.1142 8.80774 21.5543C8.80774 21.1546 9.42314 20.8332 9.93263 20.8332C10.823 20.8332 11.1544 21.0893 11.1757 21.1066C11.3247 21.2488 11.5606 21.2442 11.704 21.0963C11.8473 20.9484 11.8446 20.7125 11.6978 20.5682C11.6258 20.496 11.2479 20.1705 10.3076 20.0985V19.7082C10.3076 19.5011 10.1398 19.3333 9.93263 19.3333C9.72555 19.3333 9.55774 19.5011 9.55774 19.7082Z" fill="#4D3C6A"/>
<path d="M19.2897 7.12653C19.2502 7.00458 19.1512 6.91121 19.0272 6.87899L17.2453 6.41414L16.2465 4.88764C16.173 4.78812 16.0566 4.72917 15.9326 4.72917C15.8088 4.72917 15.6924 4.78812 15.6189 4.88764L14.6201 6.41414L12.8381 6.87899C12.7142 6.91121 12.615 7.00458 12.5758 7.12653C12.5364 7.24849 12.5619 7.3821 12.6435 7.48097L13.8061 8.88672L13.7036 10.6968C13.6963 10.8242 13.754 10.946 13.8565 11.0214C13.9594 11.0965 14.0933 11.1143 14.212 11.0689L15.9326 10.4116L17.6527 11.0689C17.7717 11.1143 17.9055 11.0965 18.0084 11.0214C18.1111 10.946 18.1687 10.8242 18.1614 10.6968L18.0588 8.88672L19.2214 7.48097C19.3032 7.38221 19.329 7.24849 19.2897 7.12653ZM17.3873 8.52228C17.3272 8.59497 17.2965 8.68812 17.3019 8.78247L17.3799 10.1615L16.0672 9.65971C15.981 9.62672 15.8859 9.62672 15.7995 9.65971L14.4872 10.1615L14.565 8.78247C14.5704 8.68812 14.5399 8.59497 14.4796 8.52228L13.5969 7.45578L14.9494 7.10278C15.0395 7.07947 15.1178 7.02327 15.1689 6.94541L15.9326 5.77807L16.6965 6.94574C16.7476 7.02371 16.8258 7.07991 16.916 7.10333L18.2685 7.45611L17.3873 8.52228Z" fill="#4D3C6A"/>
<path d="M20.4326 6.58349C20.4908 6.58349 20.5479 6.56996 20.5998 6.54412L21.35 6.16923C21.4697 6.10919 21.5487 5.98998 21.5568 5.85625C21.5647 5.72231 21.5011 5.59441 21.389 5.5204C21.2774 5.44661 21.1345 5.43804 21.0147 5.49775L20.2647 5.87286C20.1088 5.95061 20.027 6.12535 20.0669 6.29482C20.1072 6.46417 20.2585 6.58393 20.4326 6.58349Z" fill="#4D3C6A"/>
<path d="M11.9755 5.87286L11.2254 5.49775C11.1055 5.43804 10.9627 5.44661 10.8508 5.5204C10.7391 5.59441 10.6751 5.72231 10.6833 5.85625C10.6915 5.98998 10.7702 6.10919 10.8902 6.16923L11.6401 6.54412C11.8254 6.63683 12.0507 6.56139 12.1433 6.3762C12.236 6.19078 12.1606 5.96535 11.9755 5.87286Z" fill="#4D3C6A"/>
<path d="M20.2653 8.80448L21.0153 9.17948C21.135 9.23952 21.2778 9.23084 21.3897 9.15683C21.5015 9.08314 21.5654 8.95503 21.5573 8.82141C21.5493 8.68758 21.4703 8.56826 21.3505 8.50844L20.6005 8.13333C20.4151 8.04084 20.1899 8.11595 20.0972 8.30125C20.0047 8.48666 20.0799 8.71188 20.2653 8.80448Z" fill="#4D3C6A"/>
<path d="M11.6401 8.12288L10.8902 8.49788C10.7048 8.59047 10.6297 8.8158 10.7222 9.0011C10.8147 9.18651 11.04 9.26162 11.2254 9.16914L11.9755 8.79425C12.0953 8.7342 12.174 8.615 12.1823 8.48116C12.1904 8.34744 12.1263 8.21954 12.0147 8.14553C11.9028 8.07163 11.76 8.06294 11.6401 8.12288Z" fill="#4D3C6A"/>
</g>
<defs>
<clipPath id="clip0_63_723">
<rect width="24" height="24" fill="white" transform="translate(4 4)"/>
</clipPath>
</defs>
</svg>
