<svg width="32" height="32" viewBox="0 0 32 32" fill="none" xmlns="http://www.w3.org/2000/svg">
<path d="M22.2701 10.9461L21.4451 10.7455L20.9877 10.0926C20.9138 9.99802 20.8005 9.9427 20.6805 9.9427C20.5606 9.9427 20.4473 9.99802 20.3733 10.0926L19.9158 10.7455L19.0909 10.9461C18.9631 10.977 18.8609 11.0727 18.8214 11.1982C18.782 11.3238 18.8114 11.4607 18.8986 11.5591L19.4235 12.1519L19.3805 12.9107C19.3731 13.0364 19.4293 13.1573 19.5298 13.2327C19.6305 13.3081 19.7623 13.328 19.8806 13.2858L20.6815 13.0009L21.4825 13.2863C21.601 13.3284 21.7329 13.3085 21.8334 13.2329C21.9339 13.1577 21.99 13.0368 21.9826 12.9113L21.9373 12.1531L22.4623 11.5603C22.5496 11.4616 22.5788 11.3247 22.5395 11.1992C22.5 11.0739 22.3978 10.9781 22.2701 10.9471V10.9461ZM21.2726 11.771C21.207 11.8455 21.1734 11.9429 21.1793 12.042L21.2002 12.3893L20.8075 12.2493C20.7262 12.2199 20.6369 12.2199 20.5556 12.2493L20.163 12.3893L20.184 12.042C20.1896 11.9429 20.1561 11.8455 20.0907 11.771L19.875 11.5279L20.2316 11.4409C20.3203 11.4194 20.3979 11.3659 20.4502 11.2909L20.6815 10.9617L20.9129 11.2925C20.9651 11.3675 21.0429 11.4207 21.1315 11.4425L21.4881 11.5295L21.2726 11.771Z" fill="#4D3C6A"/>
<path d="M11.2393 10.0926C11.1655 9.99791 11.0522 9.9427 10.9323 9.9427C10.8124 9.9427 10.699 9.99791 10.6251 10.0926L10.1677 10.7454L9.34273 10.9461C9.21495 10.977 9.11278 11.0727 9.0733 11.1981C9.03405 11.3237 9.06319 11.4606 9.15039 11.5591L9.6754 12.1518L9.63119 12.9099C9.62371 13.0356 9.6799 13.1565 9.78042 13.2319C9.88126 13.3074 10.0129 13.3273 10.1313 13.285L10.9323 13.0001L11.7332 13.2855C11.8516 13.3276 11.9835 13.3077 12.084 13.2322C12.1847 13.1569 12.2407 13.0361 12.2335 12.9105L12.1881 12.1523L12.7131 11.5595C12.8003 11.4609 12.8296 11.3239 12.7901 11.1985C12.7507 11.0731 12.6486 10.9773 12.5207 10.9463L11.6958 10.7457L11.2393 10.0926ZM11.5232 11.7705C11.4577 11.8451 11.4243 11.9426 11.4299 12.0416L11.4508 12.3888L11.0583 12.249C10.9769 12.2195 10.8878 12.2195 10.8063 12.249L10.4136 12.3888L10.4346 12.0416C10.4405 11.9426 10.4068 11.8451 10.3413 11.7705L10.1257 11.5275L10.4824 11.4406C10.5712 11.4188 10.6486 11.3654 10.7008 11.2905L10.9323 10.9609L11.1636 11.2917C11.2158 11.3667 11.2935 11.4199 11.3824 11.4417L11.7389 11.5287L11.5232 11.7705Z" fill="#4D3C6A"/>
<path d="M16.1819 21.9322C16.1819 22.1392 16.014 22.3073 15.8069 22.3073C15.5997 22.3073 15.4319 22.1392 15.4319 21.9322C15.4319 21.7251 15.5997 21.5573 15.8069 21.5573C16.014 21.5573 16.1819 21.7251 16.1819 21.9322Z" fill="#4D3C6A"/>
<path d="M22.9311 9.18228H21.8062C21.599 9.18228 21.4312 9.3501 21.4312 9.55728C21.4312 9.76425 21.599 9.93206 21.8062 9.93206H22.9311C23.5523 9.93206 24.0561 10.4357 24.0561 11.0571V20.4314H7.55702V11.0571C7.55702 10.4357 8.0608 9.93206 8.68202 9.93206H9.80702C10.014 9.93206 10.1818 9.76425 10.1818 9.55728C10.1818 9.3501 10.014 9.18228 9.80702 9.18228H8.68202C7.64709 9.18338 6.80845 10.022 6.80713 11.0571V21.5564C6.80845 22.5914 7.64709 23.43 8.68202 23.4312H13.8865C13.7344 24.1301 13.1914 24.9313 12.4317 24.9313C11.8106 24.9313 11.3068 25.4349 11.3068 26.056C11.3068 26.6774 11.8106 27.181 12.4317 27.181H19.1813C19.8025 27.181 20.3063 26.6774 20.3063 26.056C20.3063 25.4349 19.8025 24.9313 19.1813 24.9313C18.4216 24.9313 17.8787 24.1301 17.7264 23.4312H22.9311C23.9661 23.43 24.8047 22.5914 24.8059 21.5564V11.0571C24.8047 10.022 23.9661 9.18338 22.9311 9.18228ZM19.1813 25.6811C19.3883 25.6811 19.5563 25.849 19.5563 26.056C19.5563 26.2633 19.3883 26.4311 19.1813 26.4311H12.4317C12.2247 26.4311 12.0568 26.2633 12.0568 26.056C12.0568 25.849 12.2247 25.6811 12.4317 25.6811H19.1813ZM13.9575 24.9313C14.3203 24.5033 14.56 23.9848 14.6508 23.4312H16.9622C17.0531 23.9848 17.2928 24.5033 17.6555 24.9313H13.9575ZM24.0561 21.5564C24.0561 22.1775 23.5523 22.6813 22.9311 22.6813H8.68202C8.0608 22.6813 7.55702 22.1775 7.55702 21.5564V21.1814H24.0561V21.5564Z" fill="#4D3C6A"/>
<path d="M9.43233 17.4322C9.6394 17.4322 9.80733 17.2643 9.80733 17.057V14.8073C9.80711 14.6556 9.71572 14.5188 9.57573 14.4608C9.43573 14.4028 9.27441 14.4349 9.1673 14.5423L8.41729 15.2921C8.27521 15.4393 8.27719 15.673 8.42169 15.8177C8.56642 15.9625 8.80021 15.9645 8.94757 15.8224L9.05743 15.7126V17.057C9.05743 17.2643 9.22525 17.4322 9.43233 17.4322Z" fill="#4D3C6A"/>
<path d="M12.8068 16.3071V15.5571C12.8068 14.9358 12.3032 14.4323 11.6818 14.4323C11.0607 14.4323 10.5571 14.9358 10.5571 15.5571V16.3071C10.5571 16.9283 11.0607 17.4321 11.6818 17.4321C12.3032 17.4321 12.8068 16.9283 12.8068 16.3071ZM11.3069 16.3071V15.5571C11.3069 15.35 11.4748 15.1822 11.6818 15.1822C11.8891 15.1822 12.0569 15.35 12.0569 15.5571V16.3071C12.0569 16.5141 11.8891 16.6821 11.6818 16.6821C11.4748 16.6821 11.3069 16.5141 11.3069 16.3071Z" fill="#4D3C6A"/>
<path d="M15.8068 16.3071V15.5571C15.8068 14.9358 15.303 14.4323 14.6819 14.4323C14.0604 14.4323 13.5569 14.9358 13.5569 15.5571V16.3071C13.5569 16.9283 14.0604 17.4321 14.6819 17.4321C15.303 17.4321 15.8068 16.9283 15.8068 16.3071ZM14.3068 16.3071V15.5571C14.3068 15.35 14.4746 15.1822 14.6819 15.1822C14.8889 15.1822 15.0568 15.35 15.0568 15.5571V16.3071C15.0568 16.5141 14.8889 16.6821 14.6819 16.6821C14.4746 16.6821 14.3068 16.5141 14.3068 16.3071Z" fill="#4D3C6A"/>
<path d="M21.8065 16.3071V15.5571C21.8065 14.9358 21.303 14.4323 20.6815 14.4323C20.0604 14.4323 19.5566 14.9358 19.5566 15.5571V16.3071C19.5566 16.9283 20.0604 17.4321 20.6815 17.4321C21.303 17.4321 21.8065 16.9283 21.8065 16.3071ZM20.3066 16.3071V15.5571C20.3066 15.35 20.4746 15.1822 20.6815 15.1822C20.8888 15.1822 21.0566 15.35 21.0566 15.5571V16.3071C21.0566 16.5141 20.8888 16.6821 20.6815 16.6821C20.4746 16.6821 20.3066 16.5141 20.3066 16.3071Z" fill="#4D3C6A"/>
<path d="M18.8067 16.3071V15.5571C18.8067 14.9358 18.303 14.4323 17.6819 14.4323C17.0604 14.4323 16.5569 14.9358 16.5569 15.5571V16.3071C16.5569 16.9283 17.0604 17.4321 17.6819 17.4321C18.303 17.4321 18.8067 16.9283 18.8067 16.3071ZM17.3067 16.3071V15.5571C17.3067 15.35 17.4747 15.1822 17.6819 15.1822C17.8889 15.1822 18.0567 15.35 18.0567 15.5571V16.3071C18.0567 16.5141 17.8889 16.6821 17.6819 16.6821C17.4747 16.6821 17.3067 16.5141 17.3067 16.3071Z" fill="#4D3C6A"/>
<path d="M23.3063 17.0571C23.3063 17.2644 23.1384 17.4323 22.9313 17.4323C22.7242 17.4323 22.5564 17.2644 22.5564 17.0571C22.5564 16.8501 22.7242 16.6823 22.9313 16.6823C23.1384 16.6823 23.3063 16.8501 23.3063 17.0571Z" fill="#4D3C6A"/>
<path d="M23.3063 15.5571V14.8072C23.3063 14.6001 23.1384 14.4323 22.9313 14.4323C22.7242 14.4323 22.5564 14.6001 22.5564 14.8072V15.5571C22.5564 15.7642 22.7242 15.9322 22.9313 15.9322C23.1384 15.9322 23.3063 15.7642 23.3063 15.5571Z" fill="#4D3C6A"/>
<path d="M8.68213 18.5574C8.68213 18.7645 8.84994 18.9323 9.05724 18.9323H22.9312C23.1382 18.9323 23.3062 18.7645 23.3062 18.5574C23.3062 18.3502 23.1382 18.1823 22.9312 18.1823H9.05724C8.84994 18.1823 8.68213 18.3502 8.68213 18.5574Z" fill="#4D3C6A"/>
<path d="M18.6618 6.73302L17.2196 6.3424L16.4115 5.02143C16.2827 4.81073 16.0535 4.68228 15.8067 4.68228C15.5597 4.68228 15.3307 4.81073 15.2019 5.02143L14.4192 6.3247L12.9531 6.73302C12.726 6.79735 12.5455 6.97011 12.4711 7.19424C12.3968 7.41825 12.4381 7.66458 12.5819 7.85197L13.547 9.08276L13.4608 10.6834C13.4477 10.9263 13.56 11.1587 13.758 11.2997C13.956 11.4408 14.2126 11.4703 14.4375 11.3785L15.7913 10.814L17.1758 11.3785C17.4005 11.4696 17.6562 11.4393 17.8537 11.2986C18.0513 11.1578 18.1633 10.9261 18.1508 10.6839L18.0581 9.10883L19.0314 7.85197C19.1751 7.66458 19.2167 7.41825 19.1423 7.19424C19.0678 6.97011 18.8873 6.79735 18.6601 6.73302H18.6618ZM17.4678 8.64882C17.3626 8.78353 17.3095 8.95157 17.3178 9.12246L17.3991 10.6617L16.0745 10.1211C15.9028 10.0505 15.7102 10.0505 15.5385 10.1211L14.2134 10.6617L14.2946 9.12136C14.3032 8.95157 14.2506 8.7843 14.1466 8.65003L13.2092 7.43947L14.6188 7.04621C14.7917 6.99827 14.9398 6.88643 15.0335 6.73335L15.8067 5.47132L16.5803 6.73456C16.6734 6.88698 16.8208 6.99849 16.9928 7.04698L18.4018 7.43947L17.4678 8.64882Z" fill="#4D3C6A"/>
</svg>
