<svg width="32" height="32" viewBox="0 0 32 32" fill="none" xmlns="http://www.w3.org/2000/svg">
<path d="M12.391 16.2918C12.5752 16.3856 12.8007 16.3125 12.895 16.1283C13.0512 15.8264 13.3477 15.6221 13.6855 15.5834C14.0232 15.6222 14.3196 15.8264 14.4762 16.128C14.5691 16.3131 14.7947 16.3875 14.9798 16.2945C15.1648 16.2011 15.2393 15.9756 15.1461 15.7905C14.8631 15.2353 14.3074 14.8713 13.6855 14.8333C13.0634 14.8715 12.508 15.2358 12.2247 15.7908C12.1332 15.9752 12.2074 16.1987 12.391 16.2918Z" fill="#4D3C6A"/>
<path d="M9.93539 11.8333C8.41094 11.8333 7.94365 12.4682 7.7899 12.6771C7.667 12.844 7.70268 13.0787 7.86975 13.2017C8.0366 13.3245 8.27162 13.2887 8.39442 13.1219C8.49222 12.9883 8.79013 12.5833 9.93539 12.5833C10.1425 12.5833 10.3104 12.4155 10.3104 12.2082C10.3104 12.0012 10.1425 11.8333 9.93539 11.8333Z" fill="#4D3C6A"/>
<path d="M19.5469 18.9853C18.3909 19.422 17.1709 19.6663 15.9359 19.7088C14.7007 19.6663 13.4808 19.422 12.3248 18.9853C12.1465 18.9138 11.943 18.9887 11.8535 19.1587C11.7641 19.3286 11.8173 19.5385 11.9772 19.6453C11.9981 19.6596 14.0607 21.0588 14.0607 22.7089C14.0607 23.6938 15.0039 24.2089 15.9359 24.2089C16.8677 24.2089 17.8108 23.6938 17.8108 22.7089C17.8108 21.0588 19.8735 19.6596 19.8946 19.6453C20.0543 19.5385 20.1076 19.3286 20.0181 19.1587C19.9287 18.9887 19.7252 18.9138 19.5469 18.9853ZM17.0608 22.7089C17.0608 23.3022 16.325 23.4589 15.9359 23.4589C15.5465 23.4589 14.8108 23.3022 14.8108 22.7089C14.7534 21.7585 14.3562 20.861 13.6919 20.1793C14.427 20.3556 15.1797 20.4493 15.9359 20.4587C16.6919 20.4493 17.4447 20.3556 18.1801 20.1793C17.5154 20.861 17.1183 21.7585 17.0608 22.7089Z" fill="#4D3C6A"/>
<path d="M16.8912 16.2918C17.0755 16.3856 17.301 16.3125 17.3953 16.1283C17.5516 15.8264 17.8479 15.6221 18.1857 15.5834C18.522 15.6223 18.8171 15.8258 18.9732 16.1261C19.0331 16.246 19.1525 16.325 19.2863 16.3329C19.4202 16.341 19.5479 16.2772 19.6219 16.1652C19.6957 16.0535 19.7045 15.9106 19.6447 15.7908C19.3619 15.2361 18.8073 14.8721 18.1857 14.8333C17.563 14.8708 17.0065 15.2352 16.7231 15.7908C16.6319 15.9756 16.7069 16.1994 16.8912 16.2918Z" fill="#4D3C6A"/>
<path d="M21.9358 11.8333C21.7286 11.8333 21.5608 12.0012 21.5608 12.2082C21.5608 12.4155 21.7286 12.5833 21.9358 12.5833C23.0812 12.5833 23.3787 12.9883 23.4769 13.1219C23.5561 13.2298 23.6872 13.2872 23.8205 13.2724C23.9536 13.2574 24.0689 13.1729 24.1227 13.05C24.1765 12.9273 24.1607 12.7851 24.0812 12.6771C23.9275 12.4682 23.4602 11.8333 21.9358 11.8333Z" fill="#4D3C6A"/>
<path d="M25.7815 17.5407C26.0506 16.4784 26.6097 13.5893 25.2939 11.7931C24.5835 10.8241 23.4536 10.3324 21.9359 10.3324C20.7362 10.3221 19.5775 10.7679 18.6938 11.5795C17.3715 11.2738 16.4854 10.6901 16.0686 9.83661C15.7262 9.0061 15.6898 8.08077 15.966 7.22581C16.4381 7.73209 17.1956 7.8485 17.7981 7.50731C18.4005 7.16623 18.6902 6.45676 18.4989 5.79134C18.3077 5.12603 17.6851 4.67889 16.9937 4.70984C16.302 4.74079 15.7221 5.24178 15.5909 5.92151C14.6531 6.22978 11.4352 7.49597 11.4352 10.3324C11.4352 10.4108 11.4402 10.4897 11.4432 10.568C10.9561 10.4102 10.4471 10.3308 9.93527 10.3324C8.41743 10.3324 7.28758 10.8241 6.57723 11.7951C5.26126 13.591 5.82062 16.4801 6.08978 17.5426C5.39243 17.7732 4.96456 18.4748 5.07899 19.2002C5.1932 19.9258 5.81577 20.4617 6.55014 20.4668C7.2845 20.4721 7.91468 19.9448 8.03912 19.221C8.16346 18.4972 7.74573 17.7898 7.05157 17.5494C7.34386 16.776 7.97283 15.5828 8.81027 15.5828C9.55532 15.5228 10.2667 15.9041 10.6294 16.5579C10.5601 17.0995 10.4491 17.6349 10.2974 18.1595C10.0683 18.9047 9.9464 19.6785 9.93527 20.458C9.93527 22.1776 11.057 22.8086 12.0465 23.3651C12.2869 23.5003 12.5142 23.6278 12.7272 23.7703C13.1289 24.0379 13.27 24.523 13.433 25.0829C13.7087 26.0305 14.0509 27.2083 15.9356 27.2083C17.8201 27.2083 18.1625 26.0305 18.438 25.084C18.6011 24.5213 18.7422 24.0379 19.1438 23.7714C19.3569 23.6291 19.5841 23.5013 19.8245 23.3662C20.8141 22.8086 21.9359 22.1776 21.9359 20.458C21.9249 19.6787 21.8028 18.9049 21.5736 18.16C21.422 17.6353 21.3109 17.0997 21.2417 16.5582C21.6043 15.9043 22.3158 15.5228 23.0611 15.5828C23.8953 15.5828 24.5258 16.776 24.8188 17.5475C24.1248 17.788 23.7072 18.4955 23.8315 19.2191C23.9561 19.9428 24.5863 20.4701 25.3205 20.4649C26.0548 20.4597 26.6774 19.9238 26.7918 19.1983C26.9061 18.473 26.4785 17.7715 25.7815 17.5407ZM17.0605 5.45731C17.4748 5.45731 17.8105 5.79299 17.8105 6.20731C17.8105 6.62152 17.4748 6.95742 17.0605 6.95742C16.6463 6.95742 16.3106 6.62152 16.3106 6.20731C16.3106 5.79299 16.6463 5.45731 17.0605 5.45731ZM15.2945 6.83495C15.0434 7.65412 14.8146 8.97262 15.3927 10.1614C15.8641 11.1304 16.7714 11.8152 18.0952 12.2024C18.0875 12.2119 18.081 12.2234 18.0733 12.2326C17.9429 12.3934 17.8207 12.5606 17.7072 12.7337L17.7004 12.7431C17.5669 12.7915 17.4375 12.8508 17.3138 12.9205C17.192 12.9875 17.0764 13.0647 16.968 13.1515L15.9356 13.9777L14.9032 13.1526C14.863 13.1203 14.8177 13.0967 14.7757 13.0674C14.7058 13.0149 14.633 12.9661 14.5577 12.9216C14.4338 12.8522 14.3046 12.7929 14.1712 12.7442C14.1666 12.7372 14.161 12.7297 14.1561 12.7223C14.126 12.6768 14.0939 12.6299 14.0604 12.5821C14.041 12.5542 14.0231 12.5267 14.0016 12.4982C13.9734 12.4607 13.9423 12.4191 13.9116 12.3789C13.8405 12.2847 13.7641 12.1915 13.6818 12.0939C13.6742 12.0853 13.6679 12.0767 13.6598 12.0679C13.6115 12.0122 13.5594 11.9556 13.5066 11.9007L13.456 11.8464C13.4026 11.7917 13.3472 11.7377 13.2901 11.6836C13.2702 11.6646 13.2506 11.6462 13.2298 11.6267C13.1721 11.5732 13.1119 11.5205 13.0498 11.4684C13.0276 11.4497 13.0048 11.431 12.9818 11.4125C12.9185 11.3606 12.8536 11.3102 12.7862 11.2602C12.762 11.2426 12.737 11.2254 12.7112 11.2081C12.6418 11.159 12.5717 11.1103 12.4981 11.0637C12.4742 11.0485 12.4484 11.0345 12.4231 11.0195C12.3537 10.9771 12.2858 10.934 12.2128 10.8946C12.1941 10.7079 12.1848 10.5202 12.1853 10.3324C12.1853 8.39861 14.1762 7.29971 15.2945 6.83495ZM7.31016 18.9581C7.31016 19.3722 6.97426 19.7081 6.55994 19.7081C6.14573 19.7081 5.80983 19.3722 5.80983 18.9581C5.80983 18.5438 6.14573 18.208 6.55994 18.208C6.97426 18.208 7.31016 18.5438 7.31016 18.9581ZM8.81027 14.8326C7.77855 14.8326 7.0715 15.7849 6.65608 16.5984C6.43736 15.3836 6.28857 13.4564 7.18108 12.2364C7.74364 11.4707 8.66941 11.0825 9.93527 11.0825C10.5593 11.0781 11.1756 11.2193 11.7353 11.495C11.8246 11.5388 11.9105 11.5861 11.9938 11.6353C12.0222 11.6518 12.0504 11.6687 12.0782 11.6858C12.165 11.7404 12.2498 11.7985 12.3301 11.8551C12.3466 11.8671 12.3627 11.8796 12.379 11.8924C12.65 12.0976 12.8978 12.3317 13.1184 12.5906C13.1008 12.5906 13.0841 12.5946 13.0663 12.5961C13.0261 12.5995 12.9859 12.604 12.9463 12.6092C12.9065 12.6145 12.8568 12.6216 12.8124 12.6299C12.7681 12.6382 12.7336 12.6452 12.6946 12.6542C12.6556 12.6632 12.6092 12.6752 12.5671 12.6873C12.5253 12.6993 12.4921 12.7101 12.4525 12.7248C12.4126 12.7394 12.371 12.7536 12.3309 12.7694C12.2907 12.7851 12.2559 12.7993 12.2206 12.8158C12.1853 12.8324 12.1434 12.8534 12.1054 12.8714C12.0674 12.8894 12.0348 12.9087 12.0005 12.9275C11.9659 12.9465 11.9256 12.9709 11.8918 12.9937C11.8579 13.0166 11.8253 13.0364 11.793 13.0589C11.7609 13.0813 11.7246 13.1092 11.691 13.1339C11.6577 13.1586 11.6292 13.1823 11.5993 13.2089C11.5692 13.2356 11.5358 13.2656 11.5051 13.2943C11.4744 13.3233 11.4482 13.3476 11.4206 13.3758C11.3933 13.4039 11.3627 13.4388 11.3345 13.471C11.3063 13.5034 11.283 13.5284 11.2595 13.5589C11.2358 13.5893 11.2069 13.6277 11.1813 13.6629C11.156 13.6983 11.136 13.7246 11.1151 13.7564C11.094 13.7884 11.0685 13.8314 11.0461 13.869C11.0236 13.9064 11.0065 13.9339 10.9891 13.9674C10.9679 14.007 10.9496 14.0478 10.9304 14.0887C10.9143 14.1228 10.8976 14.1562 10.8833 14.1911C10.8652 14.2342 10.8503 14.2787 10.8348 14.3231C10.8228 14.3572 10.8094 14.3906 10.7973 14.4254C10.7831 14.4727 10.7719 14.5214 10.7598 14.5703C10.7516 14.6031 10.7419 14.6358 10.7353 14.6701C10.7238 14.725 10.7172 14.7824 10.7096 14.8375C10.7055 14.866 10.7 14.8939 10.6968 14.9227C10.6881 15.0092 10.684 15.0961 10.684 15.183V15.4703C10.167 15.0204 9.49419 14.7915 8.81027 14.8326ZM19.4571 22.7116C19.2148 22.8474 18.9646 22.9883 18.7277 23.1463C18.0983 23.5658 17.8963 24.2611 17.7177 24.8743C17.4504 25.7942 17.2571 26.4583 15.9356 26.4583C14.6139 26.4583 14.4208 25.7942 14.1534 24.8743C13.975 24.2611 13.7728 23.5658 13.1434 23.1463C12.9065 22.9883 12.656 22.8462 12.414 22.7116C11.4863 22.1896 10.6853 21.7388 10.6853 20.458C10.6968 19.7441 10.8105 19.0356 11.0227 18.3537C11.2931 17.4549 11.4321 16.5214 11.4352 15.5828V15.1789C11.4363 14.1598 12.262 13.3339 13.2812 13.3328C13.3706 13.3337 13.4601 13.3412 13.5486 13.3556C13.6397 13.3703 13.7297 13.3913 13.8179 13.4184C14.0421 13.4845 14.2518 13.5927 14.4355 13.7373L15.702 14.7498C15.8389 14.8595 16.0336 14.8595 16.1706 14.7498L17.4356 13.7373C17.4396 13.7351 17.4432 13.7324 17.4468 13.7297C17.6272 13.5895 17.8324 13.4841 18.0515 13.4189C18.1392 13.3919 18.2291 13.3709 18.32 13.3559C18.8516 13.2703 19.3939 13.4237 19.802 13.7753C20.2098 14.1267 20.442 14.6404 20.4358 15.1789V15.5828C20.4391 16.5214 20.5781 17.4549 20.8483 18.3537C21.0605 19.0356 21.1743 19.7441 21.1858 20.458C21.1858 21.7388 20.3847 22.1896 19.4571 22.7116ZM23.0611 14.8326C22.3765 14.791 21.7031 15.0201 21.1858 15.4703V15.1782C21.1858 15.0911 21.1815 15.0042 21.1727 14.9179C21.1696 14.8891 21.1642 14.8613 21.1601 14.8326C21.1526 14.7764 21.1456 14.7201 21.1345 14.6649C21.1278 14.631 21.118 14.5984 21.1097 14.5654C21.0981 14.5165 21.0869 14.4678 21.0722 14.4205C21.0613 14.3857 21.0478 14.3523 21.0347 14.3182C21.0193 14.2739 21.0043 14.2293 20.9863 14.1863C20.9721 14.1515 20.9552 14.1183 20.9394 14.0845C20.9204 14.0433 20.902 14.002 20.8807 13.9624C20.8629 13.9289 20.8432 13.8971 20.8235 13.8644C20.8011 13.827 20.779 13.7893 20.7547 13.7518C20.7302 13.7145 20.7112 13.6895 20.6887 13.6589C20.666 13.6281 20.6375 13.5879 20.6098 13.554C20.5821 13.5199 20.5602 13.4958 20.5348 13.4669C20.5093 13.4382 20.4779 13.402 20.4477 13.3713C20.4178 13.3406 20.3928 13.3169 20.3642 13.2904C20.3357 13.2637 20.3019 13.2318 20.2693 13.2039C20.2367 13.1763 20.2091 13.1548 20.1781 13.1291C20.1474 13.1032 20.1106 13.0769 20.0754 13.0541C20.04 13.0311 20.0109 13.0105 19.978 12.9896C19.945 12.9685 19.9054 12.9441 19.8681 12.9227C19.8305 12.9013 19.7994 12.8853 19.7641 12.8672C19.7288 12.8492 19.6891 12.8297 19.6475 12.8109C19.606 12.7922 19.5755 12.7799 19.5388 12.7652C19.502 12.7506 19.4574 12.7341 19.4158 12.7201C19.3743 12.7064 19.3407 12.6958 19.3032 12.685C19.2657 12.6742 19.2178 12.6618 19.1742 12.6516C19.1307 12.6416 19.097 12.6343 19.0576 12.6272C19.0182 12.6201 18.968 12.6122 18.9231 12.6064C18.878 12.6009 18.8439 12.5969 18.8038 12.5934C18.7891 12.5934 18.7748 12.5897 18.7603 12.5886C18.8573 12.476 18.9535 12.3611 19.0602 12.2585L19.0629 12.2548C19.8235 11.493 20.8595 11.0702 21.9359 11.0825C23.2008 11.0825 24.1264 11.4702 24.6877 12.235C25.5808 13.4519 25.4325 15.381 25.2147 16.5969C24.7987 15.7837 24.0922 14.8326 23.0611 14.8326ZM25.3111 19.7081C24.8969 19.7081 24.5611 19.3722 24.5611 18.9581C24.5611 18.5438 24.8969 18.208 25.3111 18.208C25.7254 18.208 26.0611 18.5438 26.0611 18.9581C26.0611 19.3722 25.7254 19.7081 25.3111 19.7081Z" fill="#4D3C6A"/>
<path d="M18.5608 17.8332C18.5608 18.0405 18.3928 18.2083 18.1857 18.2083C17.9785 18.2083 17.8105 18.0405 17.8105 17.8332C17.8105 17.6262 17.9785 17.4583 18.1857 17.4583C18.3928 17.4583 18.5608 17.6262 18.5608 17.8332Z" fill="#4D3C6A"/>
<path d="M14.0605 17.8332C14.0605 18.0405 13.8927 18.2083 13.6857 18.2083C13.4784 18.2083 13.3105 18.0405 13.3105 17.8332C13.3105 17.6262 13.4784 17.4583 13.6857 17.4583C13.8927 17.4583 14.0605 17.6262 14.0605 17.8332Z" fill="#4D3C6A"/>
<path d="M11.0605 8.18076C11.1881 8.18087 11.3071 8.1159 11.3761 8.00863C11.6692 7.56138 12.0244 7.15841 12.4311 6.8116C12.5371 6.72515 12.5876 6.58792 12.563 6.45345C12.5386 6.31887 12.4426 6.20852 12.3129 6.16512C12.1833 6.12184 12.0403 6.15257 11.9399 6.2453C11.4792 6.63869 11.0767 7.09596 10.7451 7.60279C10.6706 7.7181 10.6654 7.86502 10.7312 7.98539C10.7968 8.10587 10.9233 8.18076 11.0605 8.18076Z" fill="#4D3C6A"/>
</svg>
