<svg width="32" height="32" viewBox="0 0 32 32" fill="none" xmlns="http://www.w3.org/2000/svg">
<g clip-path="url(#clip0_63_737)">
<path d="M26.0905 12.9304C25.4695 12.9304 24.966 13.434 24.966 14.0552C24.9672 14.3147 25.0589 14.5659 25.2254 14.7652L23.4665 16.5239V10.6124C23.9608 10.4371 24.2686 9.94351 24.2078 9.42247C24.1472 8.90153 23.7345 8.49156 23.2133 8.4346C22.692 8.37741 22.2003 8.68852 22.0283 9.18383C21.8564 9.67947 22.0498 10.2278 22.4946 10.506L18.5619 16.1244L16.4193 6.8376C16.9072 6.62459 17.179 6.09849 17.0703 5.57711C16.9615 5.05585 16.502 4.68228 15.9696 4.68228C15.4369 4.68228 14.9773 5.05585 14.8686 5.57711C14.7597 6.09849 15.0316 6.62459 15.5195 6.8376L13.3768 16.1244L9.44435 10.506C9.88885 10.2278 10.0824 9.67947 9.91041 9.18383C9.73852 8.68852 9.24684 8.37741 8.72558 8.4346C8.20432 8.49156 7.79149 8.90153 7.7309 9.42247C7.6703 9.94351 7.97778 10.4371 8.47221 10.6124V16.5239L6.71345 14.7652C6.88005 14.5659 6.97177 14.3147 6.97287 14.0552C6.97287 13.434 6.46942 12.9304 5.8483 12.9304C5.2273 12.9304 4.72363 13.434 4.72363 14.0552C4.72363 14.6763 5.2273 15.1798 5.8483 15.1798C5.88591 15.1778 5.92352 15.1738 5.9607 15.1681L8.31176 21.2102C8.46077 21.5965 8.81114 21.8682 9.22199 21.9166V22.6768H9.0346C8.18827 22.6095 7.3758 23.0228 6.93207 23.7465C6.48823 24.4702 6.48823 25.3818 6.93207 26.1055C7.3758 26.8292 8.18827 27.2426 9.0346 27.1752H22.9043C23.7505 27.2426 24.563 26.8292 25.0068 26.1055C25.4507 25.3818 25.4507 24.4702 25.0068 23.7465C24.563 23.0228 23.7505 22.6095 22.9043 22.6768H22.7168V21.9166C23.1279 21.8684 23.4786 21.5965 23.627 21.21L25.9783 15.1681C26.0154 15.1738 26.053 15.1778 26.0905 15.1798C26.7119 15.1798 27.2153 14.6763 27.2153 14.0552C27.2153 13.434 26.7119 12.9304 26.0905 12.9304ZM5.8483 14.4301C5.64134 14.4301 5.47352 14.2623 5.47352 14.0552C5.47352 13.8482 5.64134 13.6804 5.8483 13.6804C6.05538 13.6804 6.2232 13.8482 6.2232 14.0552C6.2232 14.2623 6.05538 14.4301 5.8483 14.4301ZM23.0917 9.18196C23.2987 9.18196 23.4665 9.34977 23.4665 9.55685C23.4665 9.76382 23.2987 9.93163 23.0917 9.93163C22.8847 9.93163 22.7168 9.76382 22.7168 9.55685C22.7168 9.34977 22.8847 9.18196 23.0917 9.18196ZM15.9696 5.43338C16.1763 5.43338 16.3444 5.6012 16.3444 5.80816C16.3444 6.01524 16.1763 6.18305 15.9696 6.18305C15.7623 6.18305 15.5945 6.01524 15.5945 5.80816C15.5945 5.6012 15.7623 5.43338 15.9696 5.43338ZM8.84721 9.18196C9.05418 9.18196 9.22199 9.34977 9.22199 9.55685C9.22199 9.76382 9.05418 9.93163 8.84721 9.93163C8.64003 9.93163 8.47221 9.76382 8.47221 9.55685C8.47221 9.34977 8.64003 9.18196 8.84721 9.18196ZM22.9283 20.9383C22.8718 21.082 22.7332 21.1766 22.5789 21.1774H18.2186C18.0115 21.1774 17.8437 21.3453 17.8437 21.5524C17.8437 21.7593 18.0115 21.9271 18.2186 21.9271H21.9672V22.6768H18.9683C18.7612 22.6768 18.5934 22.8446 18.5934 23.0517C18.5934 23.2587 18.7612 23.4265 18.9683 23.4265H22.9043C23.7828 23.379 24.5354 24.048 24.5912 24.9262C24.5354 25.8039 23.7828 26.473 22.9043 26.4255H9.0346C8.15626 26.473 7.4034 25.8039 7.34765 24.9262C7.4034 24.048 8.15626 23.379 9.0346 23.4265H12.9706C13.1776 23.4265 13.3455 23.2587 13.3455 23.0517C13.3455 22.8446 13.1776 22.6768 12.9706 22.6768H9.97166V21.9271H13.7202C13.9273 21.9271 14.0951 21.7593 14.0951 21.5524C14.0951 21.3453 13.9273 21.1774 13.7202 21.1774H9.35989C9.2055 21.1766 9.06715 21.082 9.01052 20.9383L7.21876 16.3304L8.28713 17.3991C8.44395 17.5556 8.67939 17.602 8.88383 17.5172C9.08827 17.4325 9.22177 17.2331 9.22199 17.0116V11.4956L13.023 16.9258C13.1471 17.1032 13.364 17.1908 13.5765 17.1495C13.7889 17.1081 13.957 16.9456 14.0056 16.7346L15.9696 8.22499L17.9332 16.7342C17.9818 16.9451 18.15 17.1079 18.3623 17.149C18.5748 17.1904 18.7918 17.1028 18.9158 16.9253L22.7168 11.4956V17.0116C22.7168 17.2331 22.8502 17.4327 23.055 17.5176C23.2597 17.6024 23.4952 17.5556 23.6518 17.3989L24.7205 16.3304L22.9283 20.9383ZM26.0905 14.4301C25.8836 14.4301 25.7158 14.2623 25.7158 14.0552C25.7158 13.8482 25.8836 13.6804 26.0905 13.6804C26.2976 13.6804 26.4654 13.8482 26.4654 14.0552C26.4654 14.2623 26.2976 14.4301 26.0905 14.4301Z" fill="#4D3C6A"/>
<path d="M11.0962 19.677H10.1291L9.93057 19.1665C9.85557 18.9734 9.63838 18.8777 9.44538 18.9525C9.25238 19.0275 9.1566 19.2448 9.2316 19.4377L9.52313 20.1874C9.57921 20.3317 9.71789 20.4267 9.87251 20.4267H11.0962C11.3031 20.4267 11.4709 20.2589 11.4709 20.0519C11.4709 19.8448 11.3031 19.677 11.0962 19.677Z" fill="#4D3C6A"/>
<path d="M22.4918 18.9527C22.2989 18.8777 22.0817 18.9732 22.0068 19.1663L21.8095 19.6768H20.8425C20.6353 19.6768 20.4675 19.8446 20.4675 20.0517C20.4675 20.2587 20.6353 20.4265 20.8425 20.4265H22.066C22.2205 20.4263 22.359 20.3315 22.415 20.1872L22.707 19.4375C22.7428 19.3447 22.7404 19.2414 22.6999 19.1505C22.6596 19.0597 22.5846 18.9883 22.4918 18.9527Z" fill="#4D3C6A"/>
<path d="M16.344 20.8021C16.344 20.5949 16.1759 20.4271 15.9692 20.4271C15.7619 20.4271 15.5941 20.5949 15.5941 20.8021C15.5941 21.2452 14.7846 22.2264 14.2094 22.7812C14.1361 22.8518 14.0947 22.9494 14.0947 23.0511C14.0947 23.1529 14.1361 23.2504 14.2094 23.3211C14.7846 23.8758 15.5941 24.8561 15.5941 25.3003C15.5941 25.5074 15.7619 25.6752 15.9692 25.6752C16.1759 25.6752 16.344 25.5074 16.344 25.3003C16.344 24.8572 17.1536 23.8758 17.7286 23.3211C17.802 23.2504 17.8433 23.1529 17.8433 23.0511C17.8433 22.9494 17.802 22.8518 17.7286 22.7812C17.1536 22.2264 16.344 21.246 16.344 20.8021ZM15.9692 24.2713C15.6862 23.8336 15.3608 23.4247 14.9973 23.0511C15.3608 22.6774 15.6862 22.2688 15.9692 21.831C16.2519 22.2688 16.5772 22.6774 16.9407 23.0511C16.5772 23.4247 16.2519 23.8336 15.9692 24.2713Z" fill="#4D3C6A"/>
<path d="M15.9696 19.6765C16.1763 19.6765 16.3444 19.5087 16.3444 19.3018V18.1771C16.3444 17.97 16.1763 17.8021 15.9696 17.8021C15.7623 17.8021 15.5945 17.97 15.5945 18.1771V19.3018C15.5945 19.5087 15.7623 19.6765 15.9696 19.6765Z" fill="#4D3C6A"/>
<path d="M18.3281 19.0376L17.5784 19.7873C17.4809 19.8814 17.4417 20.0207 17.4761 20.1518C17.5105 20.2827 17.6128 20.3852 17.7437 20.4195C17.8749 20.4538 18.0141 20.4146 18.1084 20.3173L18.8582 19.5675C19.0001 19.4205 18.9981 19.1865 18.8535 19.0421C18.709 18.8975 18.4751 18.8954 18.3281 19.0376Z" fill="#4D3C6A"/>
<path d="M14.3597 20.3173C14.5061 20.171 14.5061 19.9336 14.3597 19.7873L13.61 19.0376C13.463 18.8954 13.2292 18.8975 13.0846 19.0421C12.94 19.1865 12.9381 19.4205 13.0801 19.5675L13.8299 20.3173C13.9761 20.4636 14.2133 20.4636 14.3597 20.3173Z" fill="#4D3C6A"/>
<path d="M8.84682 24.922C8.84682 25.129 8.679 25.2968 8.47181 25.2968C8.26485 25.2968 8.09692 25.129 8.09692 24.922C8.09692 24.7149 8.26485 24.5469 8.47181 24.5469C8.679 24.5469 8.84682 24.7149 8.84682 24.922Z" fill="#4D3C6A"/>
<path d="M10.3465 24.922C10.3465 25.129 10.1786 25.2968 9.97146 25.2968C9.7645 25.2968 9.59668 25.129 9.59668 24.922C9.59668 24.7149 9.7645 24.5469 9.97146 24.5469C10.1786 24.5469 10.3465 24.7149 10.3465 24.922Z" fill="#4D3C6A"/>
<path d="M11.8456 24.922C11.8456 25.129 11.6778 25.2968 11.4707 25.2968C11.2638 25.2968 11.0959 25.129 11.0959 24.922C11.0959 24.7149 11.2638 24.5469 11.4707 24.5469C11.6778 24.5469 11.8456 24.7149 11.8456 24.922Z" fill="#4D3C6A"/>
<path d="M13.3451 24.922C13.3451 25.129 13.1773 25.2968 12.9702 25.2968C12.7633 25.2968 12.5955 25.129 12.5955 24.922C12.5955 24.7149 12.7633 24.5469 12.9702 24.5469C13.1773 24.5469 13.3451 24.7149 13.3451 24.922Z" fill="#4D3C6A"/>
<path d="M19.3427 24.922C19.3427 25.129 19.1749 25.2968 18.9679 25.2968C18.7608 25.2968 18.593 25.129 18.593 24.922C18.593 24.7149 18.7608 24.5469 18.9679 24.5469C19.1749 24.5469 19.3427 24.7149 19.3427 24.922Z" fill="#4D3C6A"/>
<path d="M20.8426 24.922C20.8426 25.129 20.6747 25.2968 20.4676 25.2968C20.2606 25.2968 20.0928 25.129 20.0928 24.922C20.0928 24.7149 20.2606 24.5469 20.4676 24.5469C20.6747 24.5469 20.8426 24.7149 20.8426 24.922Z" fill="#4D3C6A"/>
<path d="M22.3417 24.922C22.3417 25.129 22.1739 25.2968 21.9668 25.2968C21.7599 25.2968 21.592 25.129 21.592 24.922C21.592 24.7149 21.7599 24.5469 21.9668 24.5469C22.1739 24.5469 22.3417 24.7149 22.3417 24.922Z" fill="#4D3C6A"/>
<path d="M23.8413 24.922C23.8413 25.129 23.6735 25.2968 23.4663 25.2968C23.2595 25.2968 23.0916 25.129 23.0916 24.922C23.0916 24.7149 23.2595 24.5469 23.4663 24.5469C23.6735 24.5469 23.8413 24.7149 23.8413 24.922Z" fill="#4D3C6A"/>
</g>
<defs>
<clipPath id="clip0_63_737">
<rect width="24" height="24" fill="white" transform="translate(4 4)"/>
</clipPath>
</defs>
</svg>
